<mxfile host="app.diagrams.net" agent="Mozilla/5.0 (Windows NT 10.0; Win64; x64) AppleWebKit/537.36 (KHTML, like Gecko) Chrome/130.0.0.0 Safari/537.36" version="24.8.4">
  <diagram name="Page-1" id="XROT9iCA1yQapkAkffMf">
    <mxGraphModel dx="2043" dy="2084" grid="1" gridSize="10" guides="1" tooltips="1" connect="1" arrows="1" fold="1" page="1" pageScale="1" pageWidth="850" pageHeight="1100" math="0" shadow="0">
      <root>
        <mxCell id="0" />
        <mxCell id="1" parent="0" />
        <mxCell id="v8gyv9I-7HPP936yyZ4m-55" value="&lt;div style=&quot;text-align: center;&quot;&gt;&lt;span style=&quot;font-size: 36px; background-color: initial;&quot;&gt;Firewall Configuration:&lt;/span&gt;&lt;/div&gt;&lt;div&gt;&lt;font size=&quot;3&quot;&gt;GREEN Interface: 192.168.23.1&lt;/font&gt;&lt;/div&gt;&lt;div&gt;&lt;font size=&quot;3&quot;&gt;RED Interface: DHCP, 192.168.23.x&lt;/font&gt;&lt;/div&gt;&lt;div&gt;&lt;font size=&quot;3&quot;&gt;DHCP Range: 192.168.23.2 - 192.168.23.50&lt;/font&gt;&lt;/div&gt;&lt;div&gt;&lt;font size=&quot;3&quot;&gt;Firewall Rule: Block outbound traffic from GREEN to RED&lt;/font&gt;&lt;/div&gt;" style="rounded=0;whiteSpace=wrap;html=1;align=left;" vertex="1" parent="1">
          <mxGeometry x="-150" y="920" width="450" height="160" as="geometry" />
        </mxCell>
        <mxCell id="v8gyv9I-7HPP936yyZ4m-77" value="" style="edgeStyle=orthogonalEdgeStyle;rounded=0;orthogonalLoop=1;jettySize=auto;html=1;" edge="1" parent="1" source="v8gyv9I-7HPP936yyZ4m-58" target="v8gyv9I-7HPP936yyZ4m-59">
          <mxGeometry relative="1" as="geometry" />
        </mxCell>
        <mxCell id="v8gyv9I-7HPP936yyZ4m-78" value="VMNet2" style="edgeLabel;html=1;align=center;verticalAlign=middle;resizable=0;points=[];" vertex="1" connectable="0" parent="v8gyv9I-7HPP936yyZ4m-77">
          <mxGeometry x="0.3382" relative="1" as="geometry">
            <mxPoint as="offset" />
          </mxGeometry>
        </mxCell>
        <mxCell id="v8gyv9I-7HPP936yyZ4m-58" value="" style="verticalLabelPosition=bottom;html=1;verticalAlign=top;align=center;strokeColor=none;fillColor=#00BEF2;shape=mxgraph.azure.computer;pointerEvents=1;" vertex="1" parent="1">
          <mxGeometry x="20" y="220" width="90" height="90" as="geometry" />
        </mxCell>
        <mxCell id="v8gyv9I-7HPP936yyZ4m-84" style="edgeStyle=orthogonalEdgeStyle;rounded=0;orthogonalLoop=1;jettySize=auto;html=1;exitX=0.5;exitY=1;exitDx=0;exitDy=0;exitPerimeter=0;fillColor=#fa6800;strokeColor=#C73500;" edge="1" parent="1" source="v8gyv9I-7HPP936yyZ4m-59" target="v8gyv9I-7HPP936yyZ4m-74">
          <mxGeometry relative="1" as="geometry" />
        </mxCell>
        <mxCell id="v8gyv9I-7HPP936yyZ4m-59" value="" style="fontColor=#0066CC;verticalAlign=top;verticalLabelPosition=bottom;labelPosition=center;align=center;html=1;outlineConnect=0;fillColor=#CCCCCC;strokeColor=#6881B3;gradientColor=none;gradientDirection=north;strokeWidth=2;shape=mxgraph.networks.firewall;" vertex="1" parent="1">
          <mxGeometry x="15" y="420" width="100" height="100" as="geometry" />
        </mxCell>
        <mxCell id="v8gyv9I-7HPP936yyZ4m-61" value="IPFire VM&lt;div&gt;(Firewall)&lt;/div&gt;&lt;div&gt;&lt;br&gt;&lt;/div&gt;&lt;div&gt;GREEN: Internal&lt;/div&gt;&lt;div&gt;RED: External (WAN)&lt;/div&gt;" style="text;html=1;align=center;verticalAlign=middle;resizable=0;points=[];autosize=1;strokeColor=#ae4132;fillColor=#fad9d5;" vertex="1" parent="1">
          <mxGeometry x="-140" y="425" width="140" height="90" as="geometry" />
        </mxCell>
        <mxCell id="v8gyv9I-7HPP936yyZ4m-69" value="192.168.23.1&lt;div&gt;DHCP Range:&lt;/div&gt;&lt;div&gt;192.168.23.2&amp;nbsp; - 192.168.23.50&lt;/div&gt;&lt;div&gt;(DHCPs vary on VM)&lt;/div&gt;" style="rounded=0;whiteSpace=wrap;html=1;fillColor=#6d8764;strokeColor=#3A5431;fontColor=#ffffff;" vertex="1" parent="1">
          <mxGeometry x="300" y="380" width="170" height="90" as="geometry" />
        </mxCell>
        <mxCell id="v8gyv9I-7HPP936yyZ4m-70" value="External Network (RED)&lt;div&gt;(WAN/Internet)&lt;/div&gt;&lt;div&gt;(No outbound access)&lt;/div&gt;" style="rounded=0;whiteSpace=wrap;html=1;fillColor=#e51400;strokeColor=#B20000;fontColor=#ffffff;" vertex="1" parent="1">
          <mxGeometry x="304" y="475" width="160" height="90" as="geometry" />
        </mxCell>
        <mxCell id="v8gyv9I-7HPP936yyZ4m-72" value="" style="endArrow=classic;startArrow=classic;html=1;rounded=0;fillColor=#6d8764;strokeColor=#3A5431;" edge="1" parent="1" source="v8gyv9I-7HPP936yyZ4m-59" target="v8gyv9I-7HPP936yyZ4m-69">
          <mxGeometry width="50" height="50" relative="1" as="geometry">
            <mxPoint x="140" y="490" as="sourcePoint" />
            <mxPoint x="190" y="440" as="targetPoint" />
          </mxGeometry>
        </mxCell>
        <mxCell id="v8gyv9I-7HPP936yyZ4m-73" value="" style="endArrow=classic;startArrow=classic;html=1;rounded=0;entryX=0;entryY=0.25;entryDx=0;entryDy=0;fillColor=#e51400;strokeColor=#B20000;" edge="1" parent="1" source="v8gyv9I-7HPP936yyZ4m-59" target="v8gyv9I-7HPP936yyZ4m-70">
          <mxGeometry width="50" height="50" relative="1" as="geometry">
            <mxPoint x="250" y="530" as="sourcePoint" />
            <mxPoint x="300" y="480" as="targetPoint" />
          </mxGeometry>
        </mxCell>
        <mxCell id="v8gyv9I-7HPP936yyZ4m-96" style="edgeStyle=orthogonalEdgeStyle;rounded=0;orthogonalLoop=1;jettySize=auto;html=1;exitX=0.5;exitY=1;exitDx=0;exitDy=0;exitPerimeter=0;entryX=0.5;entryY=0;entryDx=0;entryDy=0;" edge="1" parent="1" source="v8gyv9I-7HPP936yyZ4m-74" target="v8gyv9I-7HPP936yyZ4m-90">
          <mxGeometry relative="1" as="geometry" />
        </mxCell>
        <mxCell id="v8gyv9I-7HPP936yyZ4m-102" value="VMNet 2" style="edgeLabel;html=1;align=center;verticalAlign=middle;resizable=0;points=[];" vertex="1" connectable="0" parent="v8gyv9I-7HPP936yyZ4m-96">
          <mxGeometry x="0.1682" y="-1" relative="1" as="geometry">
            <mxPoint x="1" y="-4" as="offset" />
          </mxGeometry>
        </mxCell>
        <mxCell id="v8gyv9I-7HPP936yyZ4m-97" style="edgeStyle=orthogonalEdgeStyle;rounded=0;orthogonalLoop=1;jettySize=auto;html=1;exitX=0.5;exitY=1;exitDx=0;exitDy=0;exitPerimeter=0;entryX=0.5;entryY=0;entryDx=0;entryDy=0;" edge="1" parent="1" source="v8gyv9I-7HPP936yyZ4m-79" target="v8gyv9I-7HPP936yyZ4m-91">
          <mxGeometry relative="1" as="geometry" />
        </mxCell>
        <mxCell id="v8gyv9I-7HPP936yyZ4m-103" value="VMNet 2" style="edgeLabel;html=1;align=center;verticalAlign=middle;resizable=0;points=[];" vertex="1" connectable="0" parent="v8gyv9I-7HPP936yyZ4m-97">
          <mxGeometry x="0.0091" y="2" relative="1" as="geometry">
            <mxPoint x="3" y="5" as="offset" />
          </mxGeometry>
        </mxCell>
        <mxCell id="v8gyv9I-7HPP936yyZ4m-79" value="Metasploitable 2" style="verticalLabelPosition=bottom;html=1;verticalAlign=top;align=center;strokeColor=none;fillColor=#00BEF2;shape=mxgraph.azure.computer;pointerEvents=1;" vertex="1" parent="1">
          <mxGeometry x="-200" y="620" width="90" height="90" as="geometry" />
        </mxCell>
        <mxCell id="v8gyv9I-7HPP936yyZ4m-98" style="edgeStyle=orthogonalEdgeStyle;rounded=0;orthogonalLoop=1;jettySize=auto;html=1;exitX=0.5;exitY=1;exitDx=0;exitDy=0;exitPerimeter=0;entryX=0.5;entryY=0;entryDx=0;entryDy=0;" edge="1" parent="1" source="v8gyv9I-7HPP936yyZ4m-80" target="v8gyv9I-7HPP936yyZ4m-92">
          <mxGeometry relative="1" as="geometry" />
        </mxCell>
        <mxCell id="v8gyv9I-7HPP936yyZ4m-104" value="VMNet 2" style="edgeLabel;html=1;align=center;verticalAlign=middle;resizable=0;points=[];" vertex="1" connectable="0" parent="v8gyv9I-7HPP936yyZ4m-98">
          <mxGeometry x="-0.0591" y="-5" relative="1" as="geometry">
            <mxPoint x="5" y="9" as="offset" />
          </mxGeometry>
        </mxCell>
        <mxCell id="v8gyv9I-7HPP936yyZ4m-80" value="Windows server 2012" style="verticalLabelPosition=bottom;html=1;verticalAlign=top;align=center;strokeColor=none;fillColor=#00BEF2;shape=mxgraph.azure.computer;pointerEvents=1;" vertex="1" parent="1">
          <mxGeometry x="-50" y="620" width="90" height="90" as="geometry" />
        </mxCell>
        <mxCell id="v8gyv9I-7HPP936yyZ4m-99" style="edgeStyle=orthogonalEdgeStyle;rounded=0;orthogonalLoop=1;jettySize=auto;html=1;exitX=0.5;exitY=1;exitDx=0;exitDy=0;exitPerimeter=0;entryX=0.5;entryY=0;entryDx=0;entryDy=0;" edge="1" parent="1" source="v8gyv9I-7HPP936yyZ4m-81" target="v8gyv9I-7HPP936yyZ4m-93">
          <mxGeometry relative="1" as="geometry" />
        </mxCell>
        <mxCell id="v8gyv9I-7HPP936yyZ4m-105" value="VMNet 2" style="edgeLabel;html=1;align=center;verticalAlign=middle;resizable=0;points=[];" vertex="1" connectable="0" parent="v8gyv9I-7HPP936yyZ4m-99">
          <mxGeometry x="-0.1955" y="-4" relative="1" as="geometry">
            <mxPoint x="4" y="16" as="offset" />
          </mxGeometry>
        </mxCell>
        <mxCell id="v8gyv9I-7HPP936yyZ4m-81" value="Windows 7" style="verticalLabelPosition=bottom;html=1;verticalAlign=top;align=center;strokeColor=none;fillColor=#00BEF2;shape=mxgraph.azure.computer;pointerEvents=1;" vertex="1" parent="1">
          <mxGeometry x="90" y="620" width="90" height="90" as="geometry" />
        </mxCell>
        <mxCell id="v8gyv9I-7HPP936yyZ4m-100" style="edgeStyle=orthogonalEdgeStyle;rounded=0;orthogonalLoop=1;jettySize=auto;html=1;exitX=0.5;exitY=1;exitDx=0;exitDy=0;exitPerimeter=0;entryX=0.5;entryY=0;entryDx=0;entryDy=0;" edge="1" parent="1" source="v8gyv9I-7HPP936yyZ4m-82" target="v8gyv9I-7HPP936yyZ4m-94">
          <mxGeometry relative="1" as="geometry" />
        </mxCell>
        <mxCell id="v8gyv9I-7HPP936yyZ4m-106" value="VMNet 2" style="edgeLabel;html=1;align=center;verticalAlign=middle;resizable=0;points=[];" vertex="1" connectable="0" parent="v8gyv9I-7HPP936yyZ4m-100">
          <mxGeometry x="0.0545" y="1" relative="1" as="geometry">
            <mxPoint as="offset" />
          </mxGeometry>
        </mxCell>
        <mxCell id="v8gyv9I-7HPP936yyZ4m-82" value="SEED Labs&lt;div&gt;Ubuntu&lt;/div&gt;" style="verticalLabelPosition=bottom;html=1;verticalAlign=top;align=center;strokeColor=none;fillColor=#00BEF2;shape=mxgraph.azure.computer;pointerEvents=1;" vertex="1" parent="1">
          <mxGeometry x="240" y="620" width="90" height="90" as="geometry" />
        </mxCell>
        <mxCell id="v8gyv9I-7HPP936yyZ4m-101" style="edgeStyle=orthogonalEdgeStyle;rounded=0;orthogonalLoop=1;jettySize=auto;html=1;exitX=0.5;exitY=1;exitDx=0;exitDy=0;exitPerimeter=0;entryX=0.5;entryY=0;entryDx=0;entryDy=0;" edge="1" parent="1" source="v8gyv9I-7HPP936yyZ4m-83" target="v8gyv9I-7HPP936yyZ4m-95">
          <mxGeometry relative="1" as="geometry" />
        </mxCell>
        <mxCell id="v8gyv9I-7HPP936yyZ4m-107" value="VMNet 2" style="edgeLabel;html=1;align=center;verticalAlign=middle;resizable=0;points=[];" vertex="1" connectable="0" parent="v8gyv9I-7HPP936yyZ4m-101">
          <mxGeometry x="-0.0136" y="3" relative="1" as="geometry">
            <mxPoint as="offset" />
          </mxGeometry>
        </mxCell>
        <mxCell id="v8gyv9I-7HPP936yyZ4m-83" value="GHOST SPECTRE&lt;div&gt;Windows 11&lt;/div&gt;" style="verticalLabelPosition=bottom;html=1;verticalAlign=top;align=center;strokeColor=none;fillColor=#00BEF2;shape=mxgraph.azure.computer;pointerEvents=1;" vertex="1" parent="1">
          <mxGeometry x="390" y="620" width="90" height="90" as="geometry" />
        </mxCell>
        <mxCell id="v8gyv9I-7HPP936yyZ4m-85" style="edgeStyle=orthogonalEdgeStyle;rounded=0;orthogonalLoop=1;jettySize=auto;html=1;exitX=0.5;exitY=1;exitDx=0;exitDy=0;exitPerimeter=0;entryX=0.5;entryY=0;entryDx=0;entryDy=0;entryPerimeter=0;fillColor=#fa6800;strokeColor=#C73500;" edge="1" parent="1" source="v8gyv9I-7HPP936yyZ4m-59" target="v8gyv9I-7HPP936yyZ4m-79">
          <mxGeometry relative="1" as="geometry" />
        </mxCell>
        <mxCell id="v8gyv9I-7HPP936yyZ4m-86" style="edgeStyle=orthogonalEdgeStyle;rounded=0;orthogonalLoop=1;jettySize=auto;html=1;exitX=0.5;exitY=1;exitDx=0;exitDy=0;exitPerimeter=0;entryX=0.5;entryY=0;entryDx=0;entryDy=0;entryPerimeter=0;fillColor=#fa6800;strokeColor=#C73500;" edge="1" parent="1" source="v8gyv9I-7HPP936yyZ4m-59" target="v8gyv9I-7HPP936yyZ4m-80">
          <mxGeometry relative="1" as="geometry" />
        </mxCell>
        <mxCell id="v8gyv9I-7HPP936yyZ4m-87" style="edgeStyle=orthogonalEdgeStyle;rounded=0;orthogonalLoop=1;jettySize=auto;html=1;exitX=0.5;exitY=1;exitDx=0;exitDy=0;exitPerimeter=0;entryX=0.5;entryY=0;entryDx=0;entryDy=0;entryPerimeter=0;fillColor=#fa6800;strokeColor=#C73500;" edge="1" parent="1" source="v8gyv9I-7HPP936yyZ4m-59" target="v8gyv9I-7HPP936yyZ4m-81">
          <mxGeometry relative="1" as="geometry" />
        </mxCell>
        <mxCell id="v8gyv9I-7HPP936yyZ4m-88" style="edgeStyle=orthogonalEdgeStyle;rounded=0;orthogonalLoop=1;jettySize=auto;html=1;exitX=0.5;exitY=1;exitDx=0;exitDy=0;exitPerimeter=0;entryX=0.5;entryY=0;entryDx=0;entryDy=0;entryPerimeter=0;fillColor=#fa6800;strokeColor=#C73500;" edge="1" parent="1" source="v8gyv9I-7HPP936yyZ4m-59" target="v8gyv9I-7HPP936yyZ4m-82">
          <mxGeometry relative="1" as="geometry" />
        </mxCell>
        <mxCell id="v8gyv9I-7HPP936yyZ4m-89" style="edgeStyle=orthogonalEdgeStyle;rounded=0;orthogonalLoop=1;jettySize=auto;html=1;exitX=0.5;exitY=1;exitDx=0;exitDy=0;exitPerimeter=0;entryX=0.5;entryY=0;entryDx=0;entryDy=0;entryPerimeter=0;fillColor=#fa6800;strokeColor=#C73500;" edge="1" parent="1" source="v8gyv9I-7HPP936yyZ4m-59" target="v8gyv9I-7HPP936yyZ4m-83">
          <mxGeometry relative="1" as="geometry" />
        </mxCell>
        <mxCell id="v8gyv9I-7HPP936yyZ4m-90" value="DHCP from IPFire:&lt;div&gt;192.168.23.2&lt;/div&gt;" style="rounded=0;whiteSpace=wrap;html=1;" vertex="1" parent="1">
          <mxGeometry x="-360" y="820" width="110" height="60" as="geometry" />
        </mxCell>
        <mxCell id="v8gyv9I-7HPP936yyZ4m-91" value="DHCP from IPFire:&lt;div&gt;192.168.23.3&lt;/div&gt;" style="rounded=0;whiteSpace=wrap;html=1;" vertex="1" parent="1">
          <mxGeometry x="-210" y="820" width="110" height="60" as="geometry" />
        </mxCell>
        <mxCell id="v8gyv9I-7HPP936yyZ4m-92" value="DHCP from IPFire:&lt;div&gt;192.168.23.4&lt;/div&gt;" style="rounded=0;whiteSpace=wrap;html=1;" vertex="1" parent="1">
          <mxGeometry x="-60" y="820" width="110" height="60" as="geometry" />
        </mxCell>
        <mxCell id="v8gyv9I-7HPP936yyZ4m-93" value="DHCP from IPFire:&lt;div&gt;192.168.23.5&lt;/div&gt;" style="rounded=0;whiteSpace=wrap;html=1;" vertex="1" parent="1">
          <mxGeometry x="80" y="820" width="110" height="60" as="geometry" />
        </mxCell>
        <mxCell id="v8gyv9I-7HPP936yyZ4m-94" value="DHCP from IPFire:&lt;div&gt;192.168.23.6&lt;/div&gt;" style="rounded=0;whiteSpace=wrap;html=1;" vertex="1" parent="1">
          <mxGeometry x="230" y="820" width="110" height="60" as="geometry" />
        </mxCell>
        <mxCell id="v8gyv9I-7HPP936yyZ4m-95" value="DHCP from IPFire:&lt;div&gt;192.168.23.7&lt;/div&gt;" style="rounded=0;whiteSpace=wrap;html=1;" vertex="1" parent="1">
          <mxGeometry x="380" y="820" width="110" height="60" as="geometry" />
        </mxCell>
        <mxCell id="v8gyv9I-7HPP936yyZ4m-108" value="" style="verticalLabelPosition=bottom;html=1;verticalAlign=top;align=center;strokeColor=none;fillColor=#00BEF2;shape=mxgraph.azure.computer;pointerEvents=1;" vertex="1" parent="1">
          <mxGeometry x="-344" y="614" width="90" height="90" as="geometry" />
        </mxCell>
        <mxCell id="v8gyv9I-7HPP936yyZ4m-74" value="Kali Purple" style="verticalLabelPosition=bottom;html=1;verticalAlign=top;align=center;strokeColor=#C73500;fillColor=#fa6800;shape=mxgraph.azure.computer;pointerEvents=1;fontColor=#000000;" vertex="1" parent="1">
          <mxGeometry x="-350" y="620" width="90" height="90" as="geometry" />
        </mxCell>
        <mxCell id="v8gyv9I-7HPP936yyZ4m-109" value="" style="verticalLabelPosition=bottom;html=1;verticalAlign=top;align=center;strokeColor=#C73500;fillColor=#fa6800;shape=mxgraph.azure.computer;pointerEvents=1;fontColor=#000000;" vertex="1" parent="1">
          <mxGeometry x="-207" y="628" width="90" height="90" as="geometry" />
        </mxCell>
        <mxCell id="v8gyv9I-7HPP936yyZ4m-110" value="" style="verticalLabelPosition=bottom;html=1;verticalAlign=top;align=center;strokeColor=#C73500;fillColor=#fa6800;shape=mxgraph.azure.computer;pointerEvents=1;fontColor=#000000;" vertex="1" parent="1">
          <mxGeometry x="-59" y="627" width="90" height="90" as="geometry" />
        </mxCell>
        <mxCell id="v8gyv9I-7HPP936yyZ4m-111" value="" style="verticalLabelPosition=bottom;html=1;verticalAlign=top;align=center;strokeColor=#C73500;fillColor=#fa6800;shape=mxgraph.azure.computer;pointerEvents=1;fontColor=#000000;" vertex="1" parent="1">
          <mxGeometry x="83" y="625" width="90" height="90" as="geometry" />
        </mxCell>
        <mxCell id="v8gyv9I-7HPP936yyZ4m-112" value="" style="verticalLabelPosition=bottom;html=1;verticalAlign=top;align=center;strokeColor=#C73500;fillColor=#fa6800;shape=mxgraph.azure.computer;pointerEvents=1;fontColor=#000000;" vertex="1" parent="1">
          <mxGeometry x="233" y="624" width="90" height="90" as="geometry" />
        </mxCell>
        <mxCell id="v8gyv9I-7HPP936yyZ4m-113" value="" style="verticalLabelPosition=bottom;html=1;verticalAlign=top;align=center;strokeColor=#C73500;fillColor=#fa6800;shape=mxgraph.azure.computer;pointerEvents=1;fontColor=#000000;" vertex="1" parent="1">
          <mxGeometry x="385" y="626" width="90" height="90" as="geometry" />
        </mxCell>
      </root>
    </mxGraphModel>
  </diagram>
</mxfile>
